<svg width="57" height="58" viewBox="0 0 57 58" fill="none" xmlns="http://www.w3.org/2000/svg">
<g clip-path="url(#clip0_54_2297)">
<path d="M56.2414 57.112C56.66 57.112 56.9994 56.7726 56.9994 56.354C56.9994 55.9353 56.66 55.5959 56.2414 55.5959C55.8228 55.5959 55.4834 55.9353 55.4834 56.354C55.4834 56.7726 55.8228 57.112 56.2414 57.112Z" fill="#CE2F72"/>
<path d="M49.3684 57.112C49.787 57.112 50.1264 56.7726 50.1264 56.354C50.1264 55.9353 49.787 55.5959 49.3684 55.5959C48.9497 55.5959 48.6104 55.9353 48.6104 56.354C48.6104 56.7726 48.9497 57.112 49.3684 57.112Z" fill="#CE2F72"/>
<path d="M42.4973 57.1122C42.6479 57.1127 42.7953 57.0686 42.9208 56.9853C43.0463 56.9021 43.1443 56.7834 43.2023 56.6444C43.2603 56.5055 43.2758 56.3524 43.2468 56.2046C43.2177 56.0568 43.1455 55.921 43.0392 55.8143C42.9329 55.7076 42.7973 55.6348 42.6497 55.6052C42.502 55.5756 42.3489 55.5905 42.2097 55.648C42.0705 55.7055 41.9514 55.8031 41.8677 55.9283C41.784 56.0534 41.7393 56.2007 41.7393 56.3513C41.7393 56.5526 41.819 56.7457 41.9611 56.8883C42.1032 57.0309 42.296 57.1114 42.4973 57.1122Z" fill="#CE2F72"/>
<path d="M35.6261 57.1122C35.7766 57.1122 35.9237 57.0675 36.0489 56.9839C36.174 56.9003 36.2715 56.7815 36.3291 56.6425C36.3867 56.5034 36.4017 56.3504 36.3724 56.2028C36.343 56.0552 36.2705 55.9197 36.1641 55.8133C36.0577 55.7068 35.9222 55.6344 35.7746 55.605C35.627 55.5757 35.474 55.5907 35.3349 55.6483C35.1959 55.7059 35.0771 55.8034 34.9935 55.9286C34.9099 56.0537 34.8652 56.2008 34.8652 56.3513C34.8652 56.4512 34.8849 56.5501 34.9231 56.6425C34.9614 56.7348 35.0174 56.8186 35.0881 56.8893C35.1587 56.9599 35.2426 57.016 35.3349 57.0543C35.4272 57.0925 35.5262 57.1122 35.6261 57.1122Z" fill="#CE2F72"/>
<path d="M28.7531 57.112C29.1718 57.112 29.5111 56.7726 29.5111 56.354C29.5111 55.9353 29.1718 55.5959 28.7531 55.5959C28.3345 55.5959 27.9951 55.9353 27.9951 56.354C27.9951 56.7726 28.3345 57.112 28.7531 57.112Z" fill="#CE2F72"/>
<path d="M22.1721 57.0217C22.5593 56.8625 22.7441 56.4195 22.5849 56.0323C22.4257 55.6452 21.9828 55.4603 21.5956 55.6195C21.2084 55.7787 21.0236 56.2216 21.1828 56.6088C21.342 56.996 21.7849 57.1808 22.1721 57.0217Z" fill="#CE2F72"/>
<path d="M15.0108 55.6047C14.8601 55.6041 14.7126 55.6483 14.587 55.7317C14.4615 55.8151 14.3635 55.9339 14.3055 56.0731C14.2476 56.2122 14.2323 56.3654 14.2616 56.5133C14.2908 56.6612 14.3633 56.797 14.4699 56.9036C14.5765 57.0102 14.7123 57.0827 14.8602 57.1119C15.0081 57.1412 15.1613 57.1259 15.3005 57.068C15.4396 57.01 15.5584 56.9121 15.6418 56.7865C15.7252 56.6609 15.7694 56.5134 15.7688 56.3627C15.7681 56.1619 15.688 55.9695 15.546 55.8275C15.404 55.6855 15.2116 55.6054 15.0108 55.6047Z" fill="#CE2F72"/>
<path d="M56.2414 50.9646C56.66 50.9646 56.9994 50.6252 56.9994 50.2066C56.9994 49.7879 56.66 49.4485 56.2414 49.4485C55.8228 49.4485 55.4834 49.7879 55.4834 50.2066C55.4834 50.6252 55.8228 50.9646 56.2414 50.9646Z" fill="#CE2F72"/>
<path d="M49.3684 50.9646C49.787 50.9646 50.1264 50.6252 50.1264 50.2066C50.1264 49.7879 49.787 49.4485 49.3684 49.4485C48.9497 49.4485 48.6104 49.7879 48.6104 50.2066C48.6104 50.6252 48.9497 50.9646 49.3684 50.9646Z" fill="#CE2F72"/>
<path d="M42.4973 50.9648C42.648 50.9653 42.7955 50.9211 42.9211 50.8377C43.0467 50.7543 43.1446 50.6355 43.2026 50.4964C43.2605 50.3572 43.2758 50.204 43.2466 50.0561C43.2173 49.9083 43.1448 49.7724 43.0382 49.6658C42.9316 49.5593 42.7957 49.4867 42.6479 49.4575C42.5 49.4282 42.3468 49.4435 42.2077 49.5015C42.0685 49.5594 41.9497 49.6574 41.8663 49.7829C41.7829 49.9085 41.7387 50.056 41.7393 50.2067C41.74 50.4075 41.8202 50.5999 41.9621 50.7419C42.1041 50.8839 42.2965 50.964 42.4973 50.9648Z" fill="#CE2F72"/>
<path d="M35.6261 50.9648C35.7767 50.9648 35.924 50.9201 36.0491 50.8363C36.1743 50.7526 36.2719 50.6336 36.3294 50.4944C36.3869 50.3552 36.4017 50.202 36.3722 50.0544C36.3426 49.9067 36.2698 49.7711 36.1631 49.6648C36.0564 49.5585 35.9206 49.4863 35.7728 49.4573C35.625 49.4282 35.4719 49.4437 35.3329 49.5017C35.194 49.5598 35.0753 49.6577 34.9921 49.7832C34.9088 49.9087 34.8647 50.0561 34.8652 50.2067C34.8652 50.3065 34.8849 50.4053 34.9232 50.4975C34.9615 50.5896 35.0176 50.6733 35.0883 50.7438C35.159 50.8142 35.2428 50.8699 35.3351 50.9079C35.4274 50.9458 35.5263 50.9651 35.6261 50.9648Z" fill="#CE2F72"/>
<path d="M28.7531 50.9646C29.1718 50.9646 29.5111 50.6252 29.5111 50.2066C29.5111 49.7879 29.1718 49.4485 28.7531 49.4485C28.3345 49.4485 27.9951 49.7879 27.9951 50.2066C27.9951 50.6252 28.3345 50.9646 28.7531 50.9646Z" fill="#CE2F72"/>
<path d="M22.1721 50.8765C22.5593 50.7173 22.7441 50.2744 22.5849 49.8872C22.4257 49.5 21.9828 49.3152 21.5956 49.4744C21.2084 49.6336 21.0236 50.0765 21.1828 50.4637C21.342 50.8509 21.7849 51.0357 22.1721 50.8765Z" fill="#CE2F72"/>
<path d="M15.0109 50.9648C15.1615 50.9648 15.3087 50.9201 15.4339 50.8363C15.5591 50.7526 15.6566 50.6336 15.7141 50.4944C15.7716 50.3552 15.7865 50.202 15.757 50.0544C15.7274 49.9067 15.6546 49.7711 15.5479 49.6648C15.4412 49.5585 15.3054 49.4863 15.1576 49.4573C15.0098 49.4282 14.8567 49.4437 14.7177 49.5017C14.5788 49.5598 14.4601 49.6577 14.3768 49.7832C14.2936 49.9087 14.2494 50.0561 14.25 50.2067C14.25 50.3065 14.2697 50.4053 14.308 50.4975C14.3463 50.5896 14.4024 50.6733 14.4731 50.7438C14.5438 50.8142 14.6277 50.8699 14.7199 50.9079C14.8122 50.9458 14.9111 50.9651 15.0109 50.9648Z" fill="#CE2F72"/>
<path d="M56.2414 44.8173C56.66 44.8173 56.9994 44.4779 56.9994 44.0593C56.9994 43.6406 56.66 43.3013 56.2414 43.3013C55.8228 43.3013 55.4834 43.6406 55.4834 44.0593C55.4834 44.4779 55.8228 44.8173 56.2414 44.8173Z" fill="#CE2F72"/>
<path d="M49.3684 44.8173C49.787 44.8173 50.1264 44.4779 50.1264 44.0593C50.1264 43.6406 49.787 43.3013 49.3684 43.3013C48.9497 43.3013 48.6104 43.6406 48.6104 44.0593C48.6104 44.4779 48.9497 44.8173 49.3684 44.8173Z" fill="#CE2F72"/>
<path d="M42.4973 44.8202C42.6479 44.8208 42.7953 44.7767 42.9208 44.6934C43.0463 44.6101 43.1443 44.4915 43.2023 44.3525C43.2603 44.2135 43.2758 44.0605 43.2468 43.9127C43.2177 43.7649 43.1455 43.629 43.0392 43.5223C42.9329 43.4156 42.7973 43.3429 42.6497 43.3133C42.502 43.2837 42.3489 43.2986 42.2097 43.3561C42.0705 43.4136 41.9514 43.5111 41.8677 43.6363C41.784 43.7615 41.7393 43.9087 41.7393 44.0593C41.7393 44.2606 41.819 44.4537 41.9611 44.5963C42.1032 44.739 42.296 44.8195 42.4973 44.8202Z" fill="#CE2F72"/>
<path d="M35.6261 44.8202C35.7766 44.8202 35.9237 44.7756 36.0489 44.692C36.174 44.6084 36.2715 44.4896 36.3291 44.3505C36.3867 44.2115 36.4017 44.0585 36.3724 43.9109C36.343 43.7633 36.2705 43.6277 36.1641 43.5213C36.0577 43.4149 35.9222 43.3424 35.7746 43.3131C35.627 43.2837 35.474 43.2988 35.3349 43.3564C35.1959 43.414 35.0771 43.5115 34.9935 43.6366C34.9099 43.7617 34.8652 43.9088 34.8652 44.0593C34.8652 44.1593 34.8849 44.2582 34.9231 44.3505C34.9614 44.4428 35.0174 44.5267 35.0881 44.5974C35.1587 44.668 35.2426 44.7241 35.3349 44.7623C35.4272 44.8005 35.5262 44.8202 35.6261 44.8202Z" fill="#CE2F72"/>
<path d="M28.7531 44.8173C29.1718 44.8173 29.5111 44.4779 29.5111 44.0593C29.5111 43.6406 29.1718 43.3013 28.7531 43.3013C28.3345 43.3013 27.9951 43.6406 27.9951 44.0593C27.9951 44.4779 28.3345 44.8173 28.7531 44.8173Z" fill="#CE2F72"/>
<path d="M22.1721 44.7316C22.5593 44.5724 22.7441 44.1295 22.5849 43.7423C22.4257 43.3551 21.9828 43.1703 21.5956 43.3295C21.2084 43.4887 21.0236 43.9316 21.1828 44.3188C21.342 44.706 21.7849 44.8908 22.1721 44.7316Z" fill="#CE2F72"/>
<path d="M15.0109 44.8202C15.1614 44.8202 15.3085 44.7756 15.4336 44.692C15.5587 44.6084 15.6562 44.4896 15.7138 44.3505C15.7714 44.2115 15.7865 44.0585 15.7572 43.9109C15.7278 43.7633 15.6553 43.6277 15.5489 43.5213C15.4425 43.4149 15.3069 43.3424 15.1593 43.3131C15.0117 43.2837 14.8588 43.2988 14.7197 43.3564C14.5807 43.414 14.4619 43.5115 14.3782 43.6366C14.2946 43.7617 14.25 43.9088 14.25 44.0593C14.25 44.2611 14.3302 44.4547 14.4729 44.5974C14.6156 44.7401 14.8091 44.8202 15.0109 44.8202Z" fill="#CE2F72"/>
<path d="M56.2414 38.6729C56.66 38.6729 56.9994 38.3336 56.9994 37.9149C56.9994 37.4963 56.66 37.1569 56.2414 37.1569C55.8228 37.1569 55.4834 37.4963 55.4834 37.9149C55.4834 38.3336 55.8228 38.6729 56.2414 38.6729Z" fill="#CE2F72"/>
<path d="M49.3684 38.6729C49.787 38.6729 50.1264 38.3336 50.1264 37.9149C50.1264 37.4963 49.787 37.1569 49.3684 37.1569C48.9497 37.1569 48.6104 37.4963 48.6104 37.9149C48.6104 38.3336 48.9497 38.6729 49.3684 38.6729Z" fill="#CE2F72"/>
<path d="M42.4973 38.6644C42.648 38.665 42.7955 38.6208 42.9211 38.5374C43.0467 38.454 43.1446 38.3352 43.2026 38.196C43.2605 38.0569 43.2758 37.9036 43.2466 37.7558C43.2173 37.6079 43.1448 37.4721 43.0382 37.3655C42.9316 37.2589 42.7957 37.1864 42.6479 37.1571C42.5 37.1279 42.3468 37.1432 42.2077 37.2011C42.0685 37.2591 41.9497 37.357 41.8663 37.4826C41.7829 37.6082 41.7387 37.7557 41.7393 37.9064C41.74 38.1072 41.8202 38.2996 41.9621 38.4416C42.1041 38.5835 42.2965 38.6636 42.4973 38.6644Z" fill="#CE2F72"/>
<path d="M35.6261 38.6644C35.7767 38.6644 35.924 38.6197 36.0491 38.536C36.1743 38.4522 36.2719 38.3332 36.3294 38.194C36.3869 38.0548 36.4017 37.9017 36.3722 37.754C36.3426 37.6064 36.2698 37.4708 36.1631 37.3645C36.0564 37.2582 35.9206 37.1859 35.7728 37.1569C35.625 37.1279 35.4719 37.1434 35.3329 37.2014C35.194 37.2594 35.0753 37.3574 34.9921 37.4829C34.9088 37.6084 34.8647 37.7558 34.8652 37.9064C34.8652 38.0062 34.8849 38.105 34.9232 38.1971C34.9615 38.2893 35.0176 38.373 35.0883 38.4434C35.159 38.5138 35.2428 38.5696 35.3351 38.6075C35.4274 38.6455 35.5263 38.6648 35.6261 38.6644Z" fill="#CE2F72"/>
<path d="M28.7531 38.6729C29.1718 38.6729 29.5111 38.3336 29.5111 37.9149C29.5111 37.4963 29.1718 37.1569 28.7531 37.1569C28.3345 37.1569 27.9951 37.4963 27.9951 37.9149C27.9951 38.3336 28.3345 38.6729 28.7531 38.6729Z" fill="#CE2F72"/>
<path d="M22.1731 38.5866C22.5603 38.4274 22.7451 37.9844 22.5859 37.5972C22.4267 37.21 21.9838 37.0252 21.5966 37.1844C21.2094 37.3436 21.0246 37.7865 21.1838 38.1737C21.3429 38.5609 21.7859 38.7457 22.1731 38.5866Z" fill="#CE2F72"/>
<path d="M15.0109 38.6644C15.1615 38.6644 15.3087 38.6197 15.4339 38.536C15.5591 38.4522 15.6566 38.3332 15.7141 38.194C15.7716 38.0548 15.7865 37.9017 15.757 37.754C15.7274 37.6064 15.6546 37.4708 15.5479 37.3645C15.4412 37.2582 15.3054 37.1859 15.1576 37.1569C15.0098 37.1279 14.8567 37.1434 14.7177 37.2014C14.5788 37.2594 14.4601 37.3574 14.3768 37.4829C14.2936 37.6084 14.2494 37.7558 14.25 37.9064C14.25 38.0062 14.2697 38.105 14.308 38.1971C14.3463 38.2893 14.4024 38.373 14.4731 38.4434C14.5438 38.5138 14.6277 38.5696 14.7199 38.6075C14.8122 38.6455 14.9111 38.6648 15.0109 38.6644Z" fill="#CE2F72"/>
<path d="M56.2414 32.5255C56.66 32.5255 56.9994 32.1862 56.9994 31.7675C56.9994 31.3489 56.66 31.0095 56.2414 31.0095C55.8228 31.0095 55.4834 31.3489 55.4834 31.7675C55.4834 32.1862 55.8228 32.5255 56.2414 32.5255Z" fill="#CE2F72"/>
<path d="M49.3684 32.5255C49.787 32.5255 50.1264 32.1862 50.1264 31.7675C50.1264 31.3489 49.787 31.0095 49.3684 31.0095C48.9497 31.0095 48.6104 31.3489 48.6104 31.7675C48.6104 32.1862 48.9497 32.5255 49.3684 32.5255Z" fill="#CE2F72"/>
<path d="M42.4973 32.5285C42.6479 32.529 42.7953 32.4849 42.9208 32.4017C43.0463 32.3184 43.1443 32.1997 43.2023 32.0608C43.2603 31.9218 43.2758 31.7687 43.2468 31.6209C43.2177 31.4731 43.1455 31.3373 43.0392 31.2306C42.9329 31.1239 42.7973 31.0511 42.6497 31.0215C42.502 30.992 42.3489 31.0069 42.2097 31.0644C42.0705 31.1219 41.9514 31.2194 41.8677 31.3446C41.784 31.4698 41.7393 31.617 41.7393 31.7676C41.7393 31.9689 41.819 32.162 41.9611 32.3046C42.1032 32.4472 42.296 32.5277 42.4973 32.5285Z" fill="#CE2F72"/>
<path d="M35.6261 32.5285C35.7766 32.5285 35.9237 32.4839 36.0489 32.4002C36.174 32.3166 36.2715 32.1978 36.3291 32.0588C36.3867 31.9197 36.4017 31.7667 36.3724 31.6192C36.343 31.4716 36.2705 31.336 36.1641 31.2296C36.0577 31.1232 35.9222 31.0507 35.7746 31.0213C35.627 30.992 35.474 31.007 35.3349 31.0646C35.1959 31.1222 35.0771 31.2197 34.9935 31.3449C34.9099 31.47 34.8652 31.6171 34.8652 31.7676C34.8652 31.8675 34.8849 31.9665 34.9231 32.0588C34.9614 32.1511 35.0174 32.235 35.0881 32.3056C35.1587 32.3763 35.2426 32.4323 35.3349 32.4706C35.4272 32.5088 35.5262 32.5285 35.6261 32.5285Z" fill="#CE2F72"/>
<path d="M28.7531 32.5255C29.1718 32.5255 29.5111 32.1862 29.5111 31.7675C29.5111 31.3489 29.1718 31.0095 28.7531 31.0095C28.3345 31.0095 27.9951 31.3489 27.9951 31.7675C27.9951 32.1862 28.3345 32.5255 28.7531 32.5255Z" fill="#CE2F72"/>
<path d="M22.1721 32.4386C22.5593 32.2794 22.7441 31.8365 22.5849 31.4493C22.4257 31.0621 21.9828 30.8773 21.5956 31.0365C21.2084 31.1957 21.0236 31.6386 21.1828 32.0258C21.342 32.4129 21.7849 32.5978 22.1721 32.4386Z" fill="#CE2F72"/>
<path d="M15.0109 32.5284C15.1614 32.5284 15.3085 32.4837 15.4336 32.4001C15.5587 32.3165 15.6562 32.1977 15.7138 32.0587C15.7714 31.9196 15.7865 31.7666 15.7572 31.619C15.7278 31.4714 15.6553 31.3359 15.5489 31.2294C15.4425 31.123 15.3069 31.0506 15.1593 31.0212C15.0117 30.9919 14.8588 31.0069 14.7197 31.0645C14.5807 31.1221 14.4619 31.2196 14.3782 31.3448C14.2946 31.4699 14.25 31.617 14.25 31.7675C14.25 31.9693 14.3302 32.1628 14.4729 32.3055C14.6156 32.4482 14.8091 32.5284 15.0109 32.5284Z" fill="#CE2F72"/>
</g>
<g clip-path="url(#clip1_54_2297)">
<path d="M8.81271 57.0216C9.1999 56.8624 9.38473 56.4195 9.22553 56.0323C9.06634 55.6451 8.62341 55.4603 8.23623 55.6195C7.84904 55.7787 7.6642 56.2216 7.82339 56.6088C7.98259 56.996 8.42552 57.1808 8.81271 57.0216Z" fill="#CE2F72"/>
<path d="M1.65143 55.6046C1.5007 55.6041 1.35321 55.6483 1.22765 55.7317C1.10208 55.815 1.00411 55.9339 0.946163 56.073C0.888219 56.2122 0.872909 56.3654 0.902176 56.5132C0.931444 56.6611 1.00396 56.7969 1.11055 56.9035C1.21713 57.0101 1.35296 57.0826 1.50082 57.1119C1.64868 57.1412 1.80193 57.1258 1.94108 57.0679C2.08023 57.01 2.19903 56.912 2.28242 56.7864C2.36581 56.6609 2.41001 56.5134 2.40944 56.3626C2.40868 56.1618 2.32859 55.9695 2.1866 55.8275C2.04461 55.6855 1.85223 55.6054 1.65143 55.6046Z" fill="#CE2F72"/>
<path d="M8.81272 50.8765C9.1999 50.7173 9.38473 50.2743 9.22554 49.8872C9.06635 49.5 8.62341 49.3151 8.23623 49.4743C7.84904 49.6335 7.66421 50.0765 7.8234 50.4636C7.98259 50.8508 8.42553 51.0357 8.81272 50.8765Z" fill="#CE2F72"/>
<path d="M1.65152 50.9647C1.80213 50.9647 1.94934 50.92 2.07453 50.8363C2.19972 50.7525 2.29725 50.6335 2.35475 50.4943C2.41225 50.3551 2.42717 50.202 2.39758 50.0543C2.36799 49.9066 2.29521 49.7711 2.18851 49.6648C2.08181 49.5585 1.94598 49.4862 1.7982 49.4572C1.65041 49.4282 1.49735 49.4437 1.35836 49.5017C1.21938 49.5597 1.10073 49.6577 1.01747 49.7832C0.934214 49.9087 0.890062 50.0561 0.89063 50.2067C0.89063 50.3065 0.910329 50.4053 0.948602 50.4974C0.986875 50.5896 1.04299 50.6733 1.11368 50.7437C1.18438 50.8141 1.26828 50.8699 1.36057 50.9078C1.45287 50.9457 1.55173 50.9651 1.65152 50.9647Z" fill="#CE2F72"/>
<path d="M8.81271 44.7316C9.1999 44.5724 9.38473 44.1294 9.22553 43.7422C9.06634 43.3551 8.62341 43.1702 8.23623 43.3294C7.84904 43.4886 7.6642 43.9315 7.82339 44.3187C7.98259 44.7059 8.42552 44.8907 8.81271 44.7316Z" fill="#CE2F72"/>
<path d="M1.65151 44.8202C1.802 44.8202 1.94912 44.7755 2.07424 44.6919C2.19937 44.6083 2.29687 44.4895 2.35446 44.3505C2.41205 44.2114 2.42714 44.0584 2.39778 43.9108C2.36843 43.7632 2.29597 43.6277 2.18956 43.5212C2.08314 43.4148 1.94754 43.3424 1.79995 43.313C1.65235 43.2837 1.49939 43.2987 1.36036 43.3563C1.22132 43.4139 1.10248 43.5114 1.01887 43.6366C0.935264 43.7617 0.890625 43.9088 0.890625 44.0593C0.890625 44.2611 0.970811 44.4546 1.1135 44.5973C1.2562 44.74 1.44971 44.8202 1.65151 44.8202Z" fill="#CE2F72"/>
<path d="M8.81369 38.5865C9.20088 38.4273 9.38571 37.9844 9.22652 37.5972C9.06733 37.21 8.62439 37.0252 8.2372 37.1844C7.85001 37.3435 7.66519 37.7865 7.82438 38.1737C7.98357 38.5609 8.4265 38.7457 8.81369 38.5865Z" fill="#CE2F72"/>
<path d="M1.65152 38.6643C1.80213 38.6643 1.94934 38.6196 2.07453 38.5359C2.19972 38.4522 2.29725 38.3332 2.35475 38.194C2.41225 38.0548 2.42717 37.9016 2.39758 37.754C2.36799 37.6063 2.29521 37.4707 2.18851 37.3644C2.08181 37.2581 1.94598 37.1859 1.7982 37.1568C1.65041 37.1278 1.49735 37.1433 1.35836 37.2013C1.21938 37.2594 1.10073 37.3573 1.01747 37.4828C0.934214 37.6083 0.890062 37.7557 0.89063 37.9063C0.89063 38.0061 0.910329 38.1049 0.948602 38.1971C0.986875 38.2892 1.04299 38.3729 1.11368 38.4433C1.18438 38.5138 1.26828 38.5695 1.36057 38.6075C1.45287 38.6454 1.55173 38.6647 1.65152 38.6643Z" fill="#CE2F72"/>
<path d="M8.81271 32.4385C9.1999 32.2793 9.38473 31.8364 9.22553 31.4492C9.06634 31.062 8.62341 30.8772 8.23623 31.0364C7.84904 31.1956 7.6642 31.6385 7.82339 32.0257C7.98259 32.4129 8.42552 32.5977 8.81271 32.4385Z" fill="#CE2F72"/>
<path d="M1.65151 32.5284C1.802 32.5284 1.94912 32.4837 2.07424 32.4001C2.19937 32.3165 2.29687 32.1977 2.35446 32.0587C2.41205 31.9196 2.42714 31.7666 2.39778 31.619C2.36843 31.4714 2.29597 31.3359 2.18956 31.2294C2.08314 31.123 1.94754 31.0506 1.79995 31.0212C1.65235 30.9919 1.49939 31.0069 1.36036 31.0645C1.22132 31.1221 1.10248 31.2196 1.01887 31.3448C0.935264 31.4699 0.890625 31.617 0.890625 31.7675C0.890625 31.9693 0.970811 32.1628 1.1135 32.3055C1.2562 32.4482 1.44971 32.5284 1.65151 32.5284Z" fill="#CE2F72"/>
</g>
<g clip-path="url(#clip2_54_2297)">
<path d="M56.2414 26.1024C56.66 26.1024 56.9994 25.7631 56.9994 25.3444C56.9994 24.9258 56.66 24.5864 56.2414 24.5864C55.8228 24.5864 55.4834 24.9258 55.4834 25.3444C55.4834 25.7631 55.8228 26.1024 56.2414 26.1024Z" fill="#CE2F72"/>
<path d="M49.3684 26.1024C49.787 26.1024 50.1264 25.7631 50.1264 25.3444C50.1264 24.9258 49.787 24.5864 49.3684 24.5864C48.9497 24.5864 48.6104 24.9258 48.6104 25.3444C48.6104 25.7631 48.9497 26.1024 49.3684 26.1024Z" fill="#CE2F72"/>
<path d="M42.4973 26.1027C42.6479 26.1033 42.7953 26.0591 42.9208 25.9759C43.0463 25.8926 43.1443 25.774 43.2023 25.635C43.2603 25.496 43.2758 25.3429 43.2468 25.1951C43.2177 25.0474 43.1455 24.9115 43.0392 24.8048C42.9329 24.6981 42.7973 24.6254 42.6497 24.5958C42.502 24.5662 42.3489 24.5811 42.2097 24.6386C42.0705 24.6961 41.9514 24.7936 41.8677 24.9188C41.784 25.044 41.7393 25.1912 41.7393 25.3418C41.7393 25.5431 41.819 25.7362 41.9611 25.8788C42.1032 26.0214 42.296 26.1019 42.4973 26.1027Z" fill="#CE2F72"/>
<path d="M35.6261 26.1027C35.7766 26.1027 35.9237 26.0581 36.0489 25.9745C36.174 25.8909 36.2715 25.772 36.3291 25.633C36.3867 25.494 36.4017 25.341 36.3724 25.1934C36.343 25.0458 36.2705 24.9102 36.1641 24.8038C36.0577 24.6974 35.9222 24.6249 35.7746 24.5956C35.627 24.5662 35.474 24.5813 35.3349 24.6389C35.1959 24.6964 35.0771 24.794 34.9935 24.9191C34.9099 25.0442 34.8652 25.1913 34.8652 25.3418C34.8652 25.4417 34.8849 25.5407 34.9231 25.633C34.9614 25.7253 35.0174 25.8092 35.0881 25.8798C35.1587 25.9505 35.2426 26.0066 35.3349 26.0448C35.4272 26.083 35.5262 26.1027 35.6261 26.1027Z" fill="#CE2F72"/>
<path d="M28.7531 26.1024C29.1718 26.1024 29.5111 25.7631 29.5111 25.3444C29.5111 24.9258 29.1718 24.5864 28.7531 24.5864C28.3345 24.5864 27.9951 24.9258 27.9951 25.3444C27.9951 25.7631 28.3345 26.1024 28.7531 26.1024Z" fill="#CE2F72"/>
<path d="M22.1721 26.0121C22.5593 25.8529 22.7441 25.41 22.5849 25.0228C22.4257 24.6356 21.9828 24.4508 21.5956 24.61C21.2084 24.7692 21.0236 25.2121 21.1828 25.5993C21.342 25.9865 21.7849 26.1713 22.1721 26.0121Z" fill="#CE2F72"/>
<path d="M15.0108 24.5952C14.8601 24.5946 14.7126 24.6388 14.587 24.7222C14.4615 24.8056 14.3635 24.9244 14.3055 25.0635C14.2476 25.2027 14.2323 25.3559 14.2616 25.5038C14.2908 25.6516 14.3633 25.7875 14.4699 25.8941C14.5765 26.0006 14.7123 26.0732 14.8602 26.1024C15.0081 26.1317 15.1613 26.1164 15.3005 26.0584C15.4396 26.0005 15.5584 25.9025 15.6418 25.777C15.7252 25.6514 15.7694 25.5039 15.7688 25.3532C15.7681 25.1524 15.688 24.96 15.546 24.818C15.404 24.676 15.2116 24.5959 15.0108 24.5952Z" fill="#CE2F72"/>
<path d="M56.2414 19.955C56.66 19.955 56.9994 19.6157 56.9994 19.197C56.9994 18.7784 56.66 18.439 56.2414 18.439C55.8228 18.439 55.4834 18.7784 55.4834 19.197C55.4834 19.6157 55.8228 19.955 56.2414 19.955Z" fill="#CE2F72"/>
<path d="M49.3684 19.955C49.787 19.955 50.1264 19.6157 50.1264 19.197C50.1264 18.7784 49.787 18.439 49.3684 18.439C48.9497 18.439 48.6104 18.7784 48.6104 19.197C48.6104 19.6157 48.9497 19.955 49.3684 19.955Z" fill="#CE2F72"/>
<path d="M42.4973 19.9552C42.648 19.9558 42.7955 19.9116 42.9211 19.8282C43.0467 19.7448 43.1446 19.626 43.2026 19.4869C43.2605 19.3477 43.2758 19.1945 43.2466 19.0466C43.2173 18.8988 43.1448 18.7629 43.0382 18.6563C42.9316 18.5497 42.7957 18.4772 42.6479 18.448C42.5 18.4187 42.3468 18.434 42.2077 18.4919C42.0685 18.5499 41.9497 18.6479 41.8663 18.7734C41.7829 18.899 41.7387 19.0465 41.7393 19.1972C41.74 19.398 41.8202 19.5904 41.9621 19.7324C42.1041 19.8744 42.2965 19.9545 42.4973 19.9552Z" fill="#CE2F72"/>
<path d="M35.6261 19.9552C35.7767 19.9552 35.924 19.9105 36.0491 19.8268C36.1743 19.7431 36.2719 19.6241 36.3294 19.4849C36.3869 19.3457 36.4017 19.1925 36.3722 19.0448C36.3426 18.8972 36.2698 18.7616 36.1631 18.6553C36.0564 18.549 35.9206 18.4768 35.7728 18.4477C35.625 18.4187 35.4719 18.4342 35.3329 18.4922C35.194 18.5503 35.0753 18.6482 34.9921 18.7737C34.9088 18.8992 34.8647 19.0466 34.8652 19.1972C34.8652 19.297 34.8849 19.3958 34.9232 19.488C34.9615 19.5801 35.0176 19.6638 35.0883 19.7342C35.159 19.8047 35.2428 19.8604 35.3351 19.8984C35.4274 19.9363 35.5263 19.9556 35.6261 19.9552Z" fill="#CE2F72"/>
<path d="M28.7531 19.955C29.1718 19.955 29.5111 19.6157 29.5111 19.197C29.5111 18.7784 29.1718 18.439 28.7531 18.439C28.3345 18.439 27.9951 18.7784 27.9951 19.197C27.9951 19.6157 28.3345 19.955 28.7531 19.955Z" fill="#CE2F72"/>
<path d="M22.1721 19.867C22.5593 19.7078 22.7441 19.2649 22.5849 18.8777C22.4257 18.4905 21.9828 18.3057 21.5956 18.4649C21.2084 18.6241 21.0236 19.067 21.1828 19.4542C21.342 19.8414 21.7849 20.0262 22.1721 19.867Z" fill="#CE2F72"/>
<path d="M15.0109 19.9552C15.1615 19.9552 15.3087 19.9105 15.4339 19.8268C15.5591 19.7431 15.6566 19.6241 15.7141 19.4849C15.7716 19.3457 15.7865 19.1925 15.757 19.0448C15.7274 18.8972 15.6546 18.7616 15.5479 18.6553C15.4412 18.549 15.3054 18.4768 15.1576 18.4477C15.0098 18.4187 14.8567 18.4342 14.7177 18.4922C14.5788 18.5503 14.4601 18.6482 14.3768 18.7737C14.2936 18.8992 14.2494 19.0466 14.25 19.1972C14.25 19.297 14.2697 19.3958 14.308 19.488C14.3463 19.5801 14.4024 19.6638 14.4731 19.7342C14.5438 19.8047 14.6277 19.8604 14.7199 19.8984C14.8122 19.9363 14.9111 19.9556 15.0109 19.9552Z" fill="#CE2F72"/>
<path d="M56.2414 13.8076C56.66 13.8076 56.9994 13.4683 56.9994 13.0496C56.9994 12.631 56.66 12.2916 56.2414 12.2916C55.8228 12.2916 55.4834 12.631 55.4834 13.0496C55.4834 13.4683 55.8228 13.8076 56.2414 13.8076Z" fill="#CE2F72"/>
<path d="M49.3684 13.8076C49.787 13.8076 50.1264 13.4683 50.1264 13.0496C50.1264 12.631 49.787 12.2916 49.3684 12.2916C48.9497 12.2916 48.6104 12.631 48.6104 13.0496C48.6104 13.4683 48.9497 13.8076 49.3684 13.8076Z" fill="#CE2F72"/>
<path d="M42.4973 13.8107C42.6479 13.8113 42.7953 13.7671 42.9208 13.6839C43.0463 13.6006 43.1443 13.482 43.2023 13.343C43.2603 13.204 43.2758 13.0509 43.2468 12.9032C43.2177 12.7554 43.1455 12.6195 43.0392 12.5128C42.9329 12.4061 42.7973 12.3334 42.6497 12.3038C42.502 12.2742 42.3489 12.2891 42.2097 12.3466C42.0705 12.4041 41.9514 12.5016 41.8677 12.6268C41.784 12.752 41.7393 12.8992 41.7393 13.0498C41.7393 13.2511 41.819 13.4442 41.9611 13.5868C42.1032 13.7294 42.296 13.8099 42.4973 13.8107Z" fill="#CE2F72"/>
<path d="M35.6261 13.8107C35.7766 13.8107 35.9237 13.7661 36.0489 13.6825C36.174 13.5989 36.2715 13.48 36.3291 13.341C36.3867 13.202 36.4017 13.049 36.3724 12.9014C36.343 12.7538 36.2705 12.6182 36.1641 12.5118C36.0577 12.4054 35.9222 12.3329 35.7746 12.3036C35.627 12.2742 35.474 12.2893 35.3349 12.3469C35.1959 12.4045 35.0771 12.502 34.9935 12.6271C34.9099 12.7522 34.8652 12.8993 34.8652 13.0498C34.8652 13.1497 34.8849 13.2487 34.9231 13.341C34.9614 13.4333 35.0174 13.5172 35.0881 13.5878C35.1587 13.6585 35.2426 13.7145 35.3349 13.7528C35.4272 13.791 35.5262 13.8107 35.6261 13.8107Z" fill="#CE2F72"/>
<path d="M28.7531 13.8076C29.1718 13.8076 29.5111 13.4683 29.5111 13.0496C29.5111 12.631 29.1718 12.2916 28.7531 12.2916C28.3345 12.2916 27.9951 12.631 27.9951 13.0496C27.9951 13.4683 28.3345 13.8076 28.7531 13.8076Z" fill="#CE2F72"/>
<path d="M22.1721 13.7221C22.5593 13.5629 22.7441 13.12 22.5849 12.7328C22.4257 12.3456 21.9828 12.1608 21.5956 12.32C21.2084 12.4792 21.0236 12.9221 21.1828 13.3093C21.342 13.6965 21.7849 13.8813 22.1721 13.7221Z" fill="#CE2F72"/>
<path d="M15.0109 13.8107C15.1614 13.8107 15.3085 13.7661 15.4336 13.6825C15.5587 13.5989 15.6562 13.48 15.7138 13.341C15.7714 13.202 15.7865 13.049 15.7572 12.9014C15.7278 12.7538 15.6553 12.6182 15.5489 12.5118C15.4425 12.4054 15.3069 12.3329 15.1593 12.3036C15.0117 12.2742 14.8588 12.2893 14.7197 12.3469C14.5807 12.4045 14.4619 12.502 14.3782 12.6271C14.2946 12.7522 14.25 12.8993 14.25 13.0498C14.25 13.2516 14.3302 13.4451 14.4729 13.5878C14.6156 13.7305 14.8091 13.8107 15.0109 13.8107Z" fill="#CE2F72"/>
<path d="M56.2414 7.66342C56.66 7.66342 56.9994 7.32405 56.9994 6.90541C56.9994 6.48677 56.66 6.1474 56.2414 6.1474C55.8228 6.1474 55.4834 6.48677 55.4834 6.90541C55.4834 7.32405 55.8228 7.66342 56.2414 7.66342Z" fill="#CE2F72"/>
<path d="M49.3684 7.66342C49.787 7.66342 50.1264 7.32405 50.1264 6.90541C50.1264 6.48677 49.787 6.1474 49.3684 6.1474C48.9497 6.1474 48.6104 6.48677 48.6104 6.90541C48.6104 7.32405 48.9497 7.66342 49.3684 7.66342Z" fill="#CE2F72"/>
<path d="M42.4973 7.65482C42.648 7.65539 42.7955 7.61117 42.9211 7.52778C43.0467 7.4444 43.1446 7.32559 43.2026 7.18644C43.2605 7.04729 43.2758 6.89406 43.2466 6.7462C43.2173 6.59834 43.1448 6.46251 43.0382 6.35592C42.9316 6.24934 42.7957 6.1768 42.6479 6.14754C42.5 6.11827 42.3468 6.13358 42.2077 6.19152C42.0685 6.24947 41.9497 6.34744 41.8663 6.47301C41.7829 6.59857 41.7387 6.74608 41.7393 6.89681C41.74 7.09761 41.8202 7.28999 41.9621 7.43198C42.1041 7.57397 42.2965 7.65406 42.4973 7.65482Z" fill="#CE2F72"/>
<path d="M35.6261 7.65482C35.7767 7.65482 35.924 7.61012 36.0491 7.52638C36.1743 7.44265 36.2719 7.32366 36.3294 7.18446C36.3869 7.04526 36.4017 6.89212 36.3722 6.74445C36.3426 6.59677 36.2698 6.4612 36.1631 6.35491C36.0564 6.24861 35.9206 6.17636 35.7728 6.14733C35.625 6.11829 35.4719 6.13378 35.3329 6.19181C35.194 6.24984 35.0753 6.3478 34.9921 6.4733C34.9088 6.59881 34.8647 6.7462 34.8652 6.89681C34.8652 6.99659 34.8849 7.09541 34.9232 7.18756C34.9615 7.27971 35.0176 7.36339 35.0883 7.43382C35.159 7.50424 35.2428 7.56003 35.3351 7.59795C35.4274 7.63588 35.5263 7.6552 35.6261 7.65482Z" fill="#CE2F72"/>
<path d="M28.7531 7.66342C29.1718 7.66342 29.5111 7.32405 29.5111 6.90541C29.5111 6.48677 29.1718 6.1474 28.7531 6.1474C28.3345 6.1474 27.9951 6.48677 27.9951 6.90541C27.9951 7.32405 28.3345 7.66342 28.7531 7.66342Z" fill="#CE2F72"/>
<path d="M22.1731 7.57703C22.5603 7.41784 22.7451 6.9749 22.5859 6.58772C22.4267 6.20053 21.9838 6.0157 21.5966 6.17489C21.2094 6.33408 21.0246 6.77702 21.1838 7.1642C21.3429 7.55139 21.7859 7.73622 22.1731 7.57703Z" fill="#CE2F72"/>
<path d="M15.0109 7.65482C15.1615 7.65482 15.3087 7.61012 15.4339 7.52638C15.5591 7.44265 15.6566 7.32366 15.7141 7.18446C15.7716 7.04526 15.7865 6.89212 15.757 6.74445C15.7274 6.59677 15.6546 6.4612 15.5479 6.35491C15.4412 6.24861 15.3054 6.17636 15.1576 6.14733C15.0098 6.11829 14.8567 6.13378 14.7177 6.19181C14.5788 6.24984 14.4601 6.3478 14.3768 6.4733C14.2936 6.59881 14.2494 6.7462 14.25 6.89681C14.25 6.99659 14.2697 7.09541 14.308 7.18756C14.3463 7.27971 14.4024 7.36339 14.4731 7.43382C14.5438 7.50424 14.6277 7.56003 14.7199 7.59795C14.8122 7.63588 14.9111 7.6552 15.0109 7.65482Z" fill="#CE2F72"/>
<path d="M56.2414 1.51602C56.66 1.51602 56.9994 1.17665 56.9994 0.758009C56.9994 0.339372 56.66 0 56.2414 0C55.8228 0 55.4834 0.339372 55.4834 0.758009C55.4834 1.17665 55.8228 1.51602 56.2414 1.51602Z" fill="#CE2F72"/>
<path d="M49.3684 1.51602C49.787 1.51602 50.1264 1.17665 50.1264 0.758009C50.1264 0.339372 49.787 0 49.3684 0C48.9497 0 48.6104 0.339372 48.6104 0.758009C48.6104 1.17665 48.9497 1.51602 49.3684 1.51602Z" fill="#CE2F72"/>
<path d="M42.4973 1.51896C42.6479 1.51952 42.7953 1.47539 42.9208 1.39213C43.0463 1.30887 43.1443 1.19022 43.2023 1.05124C43.2603 0.912257 43.2758 0.759189 43.2468 0.611404C43.2177 0.463619 43.1455 0.327774 43.0392 0.221076C42.9329 0.114378 42.7973 0.041616 42.6497 0.0120238C42.502 -0.0175684 42.3489 -0.00266723 42.2097 0.0548367C42.0705 0.112341 41.9514 0.209869 41.8677 0.335057C41.784 0.460244 41.7393 0.607458 41.7393 0.758068C41.7393 0.95937 41.819 1.15247 41.9611 1.29508C42.1032 1.43769 42.296 1.5182 42.4973 1.51896Z" fill="#CE2F72"/>
<path d="M35.6261 1.51895C35.7766 1.51895 35.9237 1.47433 36.0489 1.39073C36.174 1.30712 36.2715 1.18829 36.3291 1.04926C36.3867 0.910224 36.4017 0.757228 36.3724 0.609632C36.343 0.462035 36.2705 0.326451 36.1641 0.22004C36.0577 0.113629 35.9222 0.0411703 35.7746 0.0118115C35.627 -0.0175472 35.474 -0.00247418 35.3349 0.0551151C35.1959 0.112704 35.0771 0.210226 34.9935 0.335353C34.9099 0.460479 34.8652 0.607578 34.8652 0.758066C34.8652 0.857986 34.8849 0.956942 34.9231 1.04926C34.9614 1.14157 35.0174 1.22544 35.0881 1.29609C35.1587 1.36675 35.2426 1.4228 35.3349 1.46103C35.4272 1.49927 35.5262 1.51895 35.6261 1.51895Z" fill="#CE2F72"/>
<path d="M28.7531 1.51602C29.1718 1.51602 29.5111 1.17665 29.5111 0.758009C29.5111 0.339372 29.1718 0 28.7531 0C28.3345 0 27.9951 0.339372 27.9951 0.758009C27.9951 1.17665 28.3345 1.51602 28.7531 1.51602Z" fill="#CE2F72"/>
<path d="M22.1721 1.42906C22.5593 1.26987 22.7441 0.826938 22.5849 0.43975C22.4257 0.0525617 21.9828 -0.132252 21.5956 0.0269407C21.2084 0.186133 21.0236 0.629051 21.1828 1.01624C21.342 1.40343 21.7849 1.58826 22.1721 1.42906Z" fill="#CE2F72"/>
<path d="M15.0109 1.51883C15.1614 1.51883 15.3085 1.47421 15.4336 1.3906C15.5587 1.307 15.6562 1.18817 15.7138 1.04913C15.7714 0.910102 15.7865 0.757106 15.7572 0.60951C15.7278 0.461913 15.6553 0.326329 15.5489 0.219918C15.4425 0.113507 15.3069 0.0410482 15.1593 0.0116895C15.0117 -0.0176693 14.8588 -0.00259625 14.7197 0.054993C14.5807 0.112582 14.4619 0.210104 14.3782 0.33523C14.2946 0.460357 14.25 0.607456 14.25 0.757944C14.25 0.959742 14.3302 1.15328 14.4729 1.29597C14.6156 1.43866 14.8091 1.51883 15.0109 1.51883Z" fill="#CE2F72"/>
</g>
<g clip-path="url(#clip3_54_2297)">
<path d="M8.81271 26.0121C9.1999 25.8529 9.38473 25.41 9.22553 25.0228C9.06634 24.6356 8.62341 24.4508 8.23623 24.61C7.84904 24.7692 7.6642 25.2121 7.82339 25.5993C7.98259 25.9865 8.42552 26.1713 8.81271 26.0121Z" fill="#CE2F72"/>
<path d="M1.65143 24.5952C1.5007 24.5946 1.35321 24.6388 1.22765 24.7222C1.10208 24.8056 1.00411 24.9244 0.946163 25.0635C0.888219 25.2027 0.872909 25.3559 0.902176 25.5038C0.931444 25.6516 1.00396 25.7875 1.11055 25.8941C1.21713 26.0006 1.35296 26.0732 1.50082 26.1024C1.64868 26.1317 1.80193 26.1164 1.94108 26.0584C2.08023 26.0005 2.19903 25.9025 2.28242 25.777C2.36581 25.6514 2.41001 25.5039 2.40944 25.3532C2.40868 25.1524 2.32859 24.96 2.1866 24.818C2.04461 24.676 1.85223 24.5959 1.65143 24.5952Z" fill="#CE2F72"/>
<path d="M8.81272 19.867C9.1999 19.7078 9.38473 19.2649 9.22554 18.8777C9.06635 18.4905 8.62341 18.3057 8.23623 18.4649C7.84904 18.6241 7.66421 19.067 7.8234 19.4542C7.98259 19.8414 8.42553 20.0262 8.81272 19.867Z" fill="#CE2F72"/>
<path d="M1.65152 19.9552C1.80213 19.9552 1.94934 19.9105 2.07453 19.8268C2.19972 19.7431 2.29725 19.6241 2.35475 19.4849C2.41225 19.3457 2.42717 19.1925 2.39758 19.0448C2.36799 18.8972 2.29521 18.7616 2.18851 18.6553C2.08181 18.549 1.94598 18.4768 1.7982 18.4477C1.65041 18.4187 1.49735 18.4342 1.35836 18.4922C1.21938 18.5503 1.10073 18.6482 1.01747 18.7737C0.934214 18.8992 0.890062 19.0466 0.89063 19.1972C0.89063 19.297 0.910329 19.3958 0.948602 19.488C0.986875 19.5801 1.04299 19.6638 1.11368 19.7342C1.18438 19.8047 1.26828 19.8604 1.36057 19.8984C1.45287 19.9363 1.55173 19.9556 1.65152 19.9552Z" fill="#CE2F72"/>
<path d="M8.81271 13.7221C9.1999 13.5629 9.38473 13.12 9.22553 12.7328C9.06634 12.3456 8.62341 12.1608 8.23623 12.32C7.84904 12.4792 7.6642 12.9221 7.82339 13.3093C7.98259 13.6965 8.42552 13.8813 8.81271 13.7221Z" fill="#CE2F72"/>
<path d="M1.65151 13.8107C1.802 13.8107 1.94912 13.7661 2.07424 13.6825C2.19937 13.5989 2.29687 13.48 2.35446 13.341C2.41205 13.202 2.42714 13.049 2.39778 12.9014C2.36843 12.7538 2.29597 12.6182 2.18956 12.5118C2.08314 12.4054 1.94754 12.3329 1.79995 12.3036C1.65235 12.2742 1.49939 12.2893 1.36036 12.3469C1.22132 12.4045 1.10248 12.502 1.01887 12.6271C0.935264 12.7522 0.890625 12.8993 0.890625 13.0498C0.890625 13.2516 0.970811 13.4451 1.1135 13.5878C1.2562 13.7305 1.44971 13.8107 1.65151 13.8107Z" fill="#CE2F72"/>
<path d="M8.81369 7.57703C9.20088 7.41784 9.38571 6.9749 9.22652 6.58772C9.06733 6.20053 8.62439 6.0157 8.2372 6.17489C7.85001 6.33408 7.66519 6.77702 7.82438 7.1642C7.98357 7.55139 8.4265 7.73622 8.81369 7.57703Z" fill="#CE2F72"/>
<path d="M1.65152 7.65482C1.80213 7.65482 1.94934 7.61012 2.07453 7.52638C2.19972 7.44265 2.29725 7.32366 2.35475 7.18446C2.41225 7.04526 2.42717 6.89212 2.39758 6.74445C2.36799 6.59677 2.29521 6.4612 2.18851 6.35491C2.08181 6.24861 1.94598 6.17636 1.7982 6.14733C1.65041 6.11829 1.49735 6.13378 1.35836 6.19181C1.21938 6.24984 1.10073 6.3478 1.01747 6.4733C0.934214 6.59881 0.890062 6.7462 0.89063 6.89681C0.89063 6.99659 0.910329 7.09541 0.948602 7.18756C0.986875 7.27971 1.04299 7.36339 1.11368 7.43382C1.18438 7.50424 1.26828 7.56003 1.36057 7.59795C1.45287 7.63588 1.55173 7.6552 1.65152 7.65482Z" fill="#CE2F72"/>
<path d="M8.81271 1.42906C9.1999 1.26987 9.38473 0.826938 9.22553 0.43975C9.06634 0.0525617 8.62341 -0.132252 8.23623 0.0269407C7.84904 0.186133 7.6642 0.629051 7.82339 1.01624C7.98259 1.40343 8.42552 1.58826 8.81271 1.42906Z" fill="#CE2F72"/>
<path d="M1.65151 1.51883C1.802 1.51883 1.94912 1.47421 2.07424 1.3906C2.19937 1.307 2.29687 1.18817 2.35446 1.04913C2.41205 0.910102 2.42714 0.757106 2.39778 0.60951C2.36843 0.461913 2.29597 0.326329 2.18956 0.219918C2.08314 0.113507 1.94754 0.0410482 1.79995 0.0116895C1.65235 -0.0176693 1.49939 -0.00259625 1.36036 0.054993C1.22132 0.112582 1.10248 0.210104 1.01887 0.33523C0.935264 0.460357 0.890625 0.607456 0.890625 0.757944C0.890625 0.959742 0.970811 1.15328 1.1135 1.29597C1.2562 1.43866 1.44971 1.51883 1.65151 1.51883Z" fill="#CE2F72"/>
</g>
<defs>
<clipPath id="clip0_54_2297">
<rect width="42.75" height="26.1025" fill="white" transform="translate(14.25 31.0095)"/>
</clipPath>
<clipPath id="clip1_54_2297">
<rect width="13.3594" height="25.8281" fill="white" transform="translate(0.890625 31.1719)"/>
</clipPath>
<clipPath id="clip2_54_2297">
<rect width="42.75" height="26.1025" fill="white" transform="translate(14.25)"/>
</clipPath>
<clipPath id="clip3_54_2297">
<rect width="13.3594" height="25.8281" fill="white" transform="translate(0.890625)"/>
</clipPath>
</defs>
</svg>
