<svg width="60" height="53" viewBox="0 0 60 53" fill="none" xmlns="http://www.w3.org/2000/svg">
<rect width="60" height="53" rx="7" fill="#F6F6F6"/>
<path d="M53.1884 52.9427H6.81159C3.05593 52.9427 0 49.8868 0 46.1311V6.81159C0 3.05593 3.05593 0 6.81159 0H53.1884C56.9441 0 60 3.05593 60 6.81159V46.1311C60 49.8868 56.9441 52.9427 53.1884 52.9427ZM6.81159 2.02899C4.17459 2.02899 2.02899 4.17459 2.02899 6.81159V46.1311C2.02899 48.7681 4.17459 50.9137 6.81159 50.9137H53.1884C55.8254 50.9137 57.971 48.7681 57.971 46.1311V6.81159C57.971 4.17459 55.8254 2.02899 53.1884 2.02899H6.81159Z" fill="#2A3342"/>
<path d="M50.8437 37.4542H34.9022C34.3417 37.4542 33.8877 37.0001 33.8877 36.4397C33.8877 35.8798 34.3417 35.4252 34.9022 35.4252H50.8437C51.4035 35.4252 51.8581 35.8798 51.8581 36.4397C51.8581 37.0001 51.4041 37.4542 50.8437 37.4542Z" fill="#2A3342"/>
<path d="M50.8437 44.7888H34.9022C34.3417 44.7888 33.8877 44.3348 33.8877 43.7743C33.8877 43.2144 34.3417 42.7598 34.9022 42.7598H50.8437C51.4035 42.7598 51.8581 43.2144 51.8581 43.7743C51.8581 44.3348 51.4041 44.7888 50.8437 44.7888Z" fill="#2A3342"/>
<path d="M50.8437 22.7848H34.9022C34.3417 22.7848 33.8877 22.3308 33.8877 21.7703C33.8877 21.2104 34.3417 20.7558 34.9022 20.7558H50.8437C51.4035 20.7558 51.8581 21.2104 51.8581 21.7703C51.8581 22.3308 51.4041 22.7848 50.8437 22.7848Z" fill="#2A3342"/>
<path d="M50.8437 30.1194H34.9022C34.3417 30.1194 33.8877 29.6654 33.8877 29.1049C33.8877 28.5451 34.3417 28.0905 34.9022 28.0905H50.8437C51.4035 28.0905 51.8581 28.5451 51.8581 29.1049C51.8581 29.6654 51.4041 30.1194 50.8437 30.1194Z" fill="#2A3342"/>
<path d="M58.9855 13.5841H1.01449C0.454031 13.5841 0 13.1301 0 12.5696C0 12.0091 0.454031 11.5551 1.01449 11.5551H58.9855C59.546 11.5551 60 12.0091 60 12.5696C60 13.1301 59.546 13.5841 58.9855 13.5841Z" fill="#2A3342"/>
<path d="M14.625 9.96831C12.8842 9.96831 11.4678 8.55244 11.4678 6.81161C11.4678 5.07078 12.8842 3.65491 14.625 3.65491C16.3659 3.65491 17.7817 5.07078 17.7817 6.81161C17.7817 8.55244 16.3659 9.96831 14.625 9.96831ZM14.625 5.68389C14.0029 5.68389 13.4968 6.19001 13.4968 6.81161C13.4968 7.43321 14.0029 7.93933 14.625 7.93933C15.2466 7.93933 15.7528 7.43321 15.7528 6.81161C15.7528 6.19001 15.2466 5.68389 14.625 5.68389Z" fill="#2A3342"/>
<path d="M7.31588 9.96831C5.57562 9.96831 4.15918 8.55244 4.15918 6.81161C4.15918 5.07078 5.57562 3.65491 7.31588 3.65491C9.05671 3.65491 10.4731 5.07078 10.4731 6.81161C10.4731 8.55244 9.05671 9.96831 7.31588 9.96831ZM7.31588 5.68389C6.69428 5.68389 6.18816 6.19001 6.18816 6.81161C6.18816 7.43321 6.69428 7.93933 7.31588 7.93933C7.93805 7.93933 8.44416 7.43321 8.44416 6.81161C8.44416 6.19001 7.93805 5.68389 7.31588 5.68389Z" fill="#2A3342"/>
<path d="M21.934 9.96831C20.1932 9.96831 18.7773 8.55244 18.7773 6.81161C18.7773 5.07078 20.1932 3.65491 21.934 3.65491C23.6749 3.65491 25.0913 5.07078 25.0913 6.81161C25.0913 8.55244 23.6749 9.96831 21.934 9.96831ZM21.934 5.68389C21.3119 5.68389 20.8063 6.19001 20.8063 6.81161C20.8063 7.43321 21.3124 7.93933 21.934 7.93933C22.5562 7.93933 23.0623 7.43321 23.0623 6.81161C23.0623 6.19001 22.5562 5.68389 21.934 5.68389Z" fill="#2A3342"/>
<path d="M27.2465 44.7889H8.84066C8.2802 44.7889 7.82617 44.3348 7.82617 43.7744V21.7703C7.82617 21.2104 8.2802 20.7558 8.84066 20.7558H27.2465C27.8069 20.7558 28.261 21.2104 28.261 21.7703V43.7744C28.261 44.3348 27.8069 44.7889 27.2465 44.7889ZM9.85516 42.7599H26.232V22.7848H9.85516V42.7599Z" fill="#2A3342"/>
</svg>
