<svg width="60" height="60" viewBox="0 0 60 60" fill="none" xmlns="http://www.w3.org/2000/svg">
<rect width="60" height="60" fill="#F6F6F6"/>
<path d="M16.8751 28.0987C16.9948 28.0987 17.1133 28.0752 17.2238 28.0294C17.3344 27.9836 17.4349 27.9165 17.5195 27.8318C17.6041 27.7472 17.6712 27.6468 17.717 27.5362C17.7628 27.4257 17.7864 27.3072 17.7864 27.1875V24.375C17.7864 24.1333 17.6904 23.9015 17.5195 23.7306C17.3486 23.5598 17.1168 23.4637 16.8751 23.4637C16.6334 23.4637 16.4017 23.5598 16.2308 23.7306C16.0599 23.9015 15.9639 24.1333 15.9639 24.375V27.1875C15.9639 27.3072 15.9874 27.4257 16.0332 27.5362C16.079 27.6468 16.1461 27.7472 16.2308 27.8318C16.3154 27.9165 16.4158 27.9836 16.5264 28.0294C16.637 28.0752 16.7555 28.0987 16.8751 28.0987Z" fill="#2A3342"/>
<path d="M13.1251 28.0987C13.2448 28.0987 13.3633 28.0752 13.4738 28.0294C13.5844 27.9836 13.6849 27.9165 13.7695 27.8318C13.8541 27.7472 13.9212 27.6468 13.967 27.5362C14.0128 27.4257 14.0364 27.3072 14.0364 27.1875V24.375C14.0364 24.1333 13.9404 23.9015 13.7695 23.7306C13.5986 23.5598 13.3668 23.4637 13.1251 23.4637C12.8834 23.4637 12.6517 23.5598 12.4808 23.7306C12.3099 23.9015 12.2139 24.1333 12.2139 24.375V27.1875C12.2139 27.3072 12.2374 27.4257 12.2832 27.5362C12.329 27.6468 12.3961 27.7472 12.4808 27.8318C12.5654 27.9165 12.6658 27.9836 12.7764 28.0294C12.887 28.0752 13.0055 28.0987 13.1251 28.0987Z" fill="#2A3342"/>
<path d="M20.6251 28.0987C20.7448 28.0987 20.8633 28.0752 20.9738 28.0294C21.0844 27.9836 21.1849 27.9165 21.2695 27.8318C21.3541 27.7472 21.4212 27.6468 21.467 27.5362C21.5128 27.4257 21.5364 27.3072 21.5364 27.1875V24.375C21.5364 24.1333 21.4404 23.9015 21.2695 23.7306C21.0986 23.5598 20.8668 23.4637 20.6251 23.4637C20.3834 23.4637 20.1517 23.5598 19.9808 23.7306C19.8099 23.9015 19.7139 24.1333 19.7139 24.375V27.1875C19.7139 27.4292 19.8099 27.661 19.9808 27.8318C20.1517 28.0027 20.3834 28.0987 20.6251 28.0987Z" fill="#2A3342"/>
<path d="M53.9062 1.875H6.09375C4.9754 1.87674 3.90335 2.32177 3.11256 3.11256C2.32177 3.90335 1.87674 4.9754 1.875 6.09375V42.1875C1.875 43.4307 2.36886 44.623 3.24794 45.5021C4.12701 46.3811 5.3193 46.875 6.5625 46.875H24.375V52.5H17.8125C17.0673 52.5022 16.3532 52.7993 15.8262 53.3262C15.2993 53.8532 15.0022 54.5673 15 55.3125V57.1875C15 57.4361 15.0988 57.6746 15.2746 57.8504C15.4504 58.0262 15.6889 58.125 15.9375 58.125H54.375C54.6236 58.125 54.8621 58.0262 55.0379 57.8504C55.2137 57.6746 55.3125 57.4361 55.3125 57.1875V51.5625C55.3125 51.3139 55.2137 51.0754 55.0379 50.8996C54.8621 50.7238 54.6236 50.625 54.375 50.625H53.4656L53.4469 50.1281C53.4398 49.9786 53.4722 49.8299 53.5406 49.6969L54.075 48.6281C54.2711 48.2383 54.3738 47.8082 54.375 47.3719V46.7812C55.4324 46.5624 56.3823 45.9863 57.0651 45.1498C57.748 44.3133 58.1222 43.2673 58.125 42.1875V6.09375C58.1233 4.9754 57.6782 3.90335 56.8874 3.11256C56.0966 2.32177 55.0246 1.87674 53.9062 1.875ZM42.1875 3.75H47.8125V6.5625C47.8125 7.30842 47.5162 8.02379 46.9887 8.55124C46.4613 9.07868 45.7459 9.375 45 9.375C44.2541 9.375 43.5387 9.07868 43.0113 8.55124C42.4838 8.02379 42.1875 7.30842 42.1875 6.5625V3.75ZM34.6875 3.75H40.3125V6.5625C40.3125 7.30842 40.0162 8.02379 39.4887 8.55124C38.9613 9.07868 38.2459 9.375 37.5 9.375C36.7541 9.375 36.0387 9.07868 35.5113 8.55124C34.9838 8.02379 34.6875 7.30842 34.6875 6.5625V3.75ZM27.1875 3.75H32.8125V6.5625C32.8125 7.30842 32.5162 8.02379 31.9887 8.55124C31.4613 9.07868 30.7459 9.375 30 9.375C29.2541 9.375 28.5387 9.07868 28.0113 8.55124C27.4838 8.02379 27.1875 7.30842 27.1875 6.5625V3.75ZM19.6875 3.75H25.3125V6.5625C25.3125 7.30842 25.0162 8.02379 24.4887 8.55124C23.9613 9.07868 23.2459 9.375 22.5 9.375C21.7541 9.375 21.0387 9.07868 20.5113 8.55124C19.9838 8.02379 19.6875 7.30842 19.6875 6.5625V3.75ZM12.1875 3.75H17.8125V6.5625C17.8125 7.30842 17.5162 8.02379 16.9887 8.55124C16.4613 9.07868 15.7459 9.375 15 9.375C14.2541 9.375 13.5387 9.07868 13.0113 8.55124C12.4838 8.02379 12.1875 7.30842 12.1875 6.5625V3.75ZM6.09375 3.75H10.3125V6.09375C10.3125 6.96399 9.9668 7.79859 9.35144 8.41394C8.73609 9.0293 7.90149 9.375 7.03125 9.375C6.16101 9.375 5.32641 9.0293 4.71106 8.41394C4.0957 7.79859 3.75 6.96399 3.75 6.09375C3.75 5.47215 3.99693 4.87601 4.43647 4.43647C4.87601 3.99693 5.47215 3.75 6.09375 3.75ZM6.5625 45C5.81726 44.9978 5.10319 44.7007 4.57622 44.1738C4.04926 43.6468 3.75223 42.9327 3.75 42.1875V41.25H36.6281C36.3261 42.4762 36.2562 43.7481 36.4219 45H6.5625ZM30.9375 38.4375V15.9375C30.9375 15.6889 31.0363 15.4504 31.2121 15.2746C31.3879 15.0988 31.6264 15 31.875 15H32.8125V39.375H31.875C31.6264 39.375 31.3879 39.2762 31.2121 39.1004C31.0363 38.9246 30.9375 38.6861 30.9375 38.4375ZM34.6875 39.375V15H36.5625V39.375H34.6875ZM33.75 46.875V52.5H26.25V46.875H33.75ZM36.5625 56.25H16.875V55.3125C16.875 55.0639 16.9738 54.8254 17.1496 54.6496C17.3254 54.4738 17.5639 54.375 17.8125 54.375H36.5625V56.25ZM36.5625 51.5625V52.5H35.625V46.875H36.8438C37.1309 47.7682 37.5411 48.617 38.0625 49.3969L38.4375 49.9688V50.625H37.5C37.2514 50.625 37.0129 50.7238 36.8371 50.8996C36.6613 51.0754 36.5625 51.3139 36.5625 51.5625ZM40.6031 33.4969L44.6531 37.5469C44.2394 38.1046 43.9108 38.7207 43.6781 39.375H38.4375V15H45C45.2486 15 45.4871 15.0988 45.6629 15.2746C45.8387 15.4504 45.9375 15.6889 45.9375 15.9375V30.8719L44.5031 29.4281C44.2367 29.1681 43.9215 28.9635 43.5756 28.826C43.2297 28.6886 42.86 28.621 42.4878 28.6272C42.1156 28.6334 41.7484 28.7132 41.4073 28.8622C41.0661 29.0111 40.7579 29.2261 40.5003 29.4948C40.2427 29.7635 40.041 30.0806 39.9066 30.4277C39.7723 30.7749 39.708 31.1452 39.7176 31.5173C39.7271 31.8894 39.8103 32.2559 39.9623 32.5957C40.1143 32.9354 40.3321 33.2417 40.6031 33.4969ZM38.5781 41.25H43.3031C43.1786 42.9529 43.7009 44.6402 44.7656 45.975L45.2063 46.5187C45.2936 46.6292 45.4046 46.7186 45.5312 46.7803C45.6578 46.842 45.7967 46.8744 45.9375 46.875C46.1495 46.8768 46.3553 46.8037 46.5187 46.6687C46.6163 46.5935 46.6978 46.4995 46.7583 46.3922C46.8189 46.2849 46.8573 46.1666 46.8713 46.0442C46.8853 45.9218 46.8745 45.7979 46.8398 45.6797C46.805 45.5615 46.7468 45.4515 46.6687 45.3563L46.2281 44.8031C45.4625 43.8447 45.0774 42.6374 45.1465 41.4127C45.2157 40.1879 45.7344 39.0317 46.6031 38.1656C46.7788 37.9886 46.8773 37.7494 46.8773 37.5C46.8773 37.2506 46.7788 37.0114 46.6031 36.8344L41.9344 32.1656C41.7462 31.9966 41.6284 31.7632 41.6041 31.5115C41.5798 31.2598 41.6508 31.0081 41.8031 30.8063C41.8893 30.7042 41.9971 30.6227 42.1187 30.5676C42.2404 30.5124 42.3727 30.4851 42.5062 30.4875C42.6298 30.4853 42.7526 30.5083 42.867 30.555C42.9814 30.6018 43.0852 30.6713 43.1719 30.7594L49.0406 36.6281C49.128 36.7155 49.2318 36.7849 49.346 36.8322C49.4602 36.8795 49.5826 36.9038 49.7062 36.9038C49.8299 36.9038 49.9523 36.8795 50.0665 36.8322C50.1807 36.7849 50.2845 36.7155 50.3719 36.6281C50.4593 36.5407 50.5286 36.4369 50.5759 36.3227C50.6232 36.2085 50.6476 36.0861 50.6476 35.9625C50.6476 35.8389 50.6232 35.7165 50.5759 35.6023C50.5286 35.4881 50.4593 35.3843 50.3719 35.2969L47.8125 32.7469V29.2594L50.9156 31.9969C51.4133 32.4375 51.8119 32.9787 52.085 33.5847C52.3581 34.1907 52.4996 34.8478 52.5 35.5125V47.3719C52.4981 47.5185 52.4628 47.6628 52.3969 47.7938L51.8625 48.8625C51.6628 49.2707 51.5631 49.7206 51.5719 50.175L51.5906 50.625H40.3125V49.6875C40.313 49.5034 40.2574 49.3236 40.1531 49.1719L39.6187 48.3563C38.9286 47.3233 38.4771 46.1497 38.2971 44.9205C38.1171 43.6913 38.2131 42.4375 38.5781 41.25ZM53.4375 56.25H38.4375V52.5H53.4375V56.25ZM56.25 42.1875C56.247 42.7674 56.0654 43.3324 55.7299 43.8054C55.3944 44.2785 54.9213 44.6367 54.375 44.8312V41.25H56.25V42.1875ZM56.25 39.375H54.375V35.5125C54.3757 34.5813 54.1778 33.6607 53.7947 32.812C53.4116 31.9633 52.8519 31.206 52.1531 30.5906L47.8125 26.7656V15.9375C47.8103 15.1923 47.5132 14.4782 46.9863 13.9512C46.4593 13.4243 45.7452 13.1272 45 13.125H31.875C31.1298 13.1272 30.4157 13.4243 29.8887 13.9512C29.3618 14.4782 29.0647 15.1923 29.0625 15.9375V38.4375C29.065 38.7573 29.1221 39.0744 29.2313 39.375H3.75V10.0687C4.28554 10.5117 4.90522 10.8416 5.57169 11.0386C6.23817 11.2356 6.93764 11.2957 7.62793 11.2151C8.31823 11.1345 8.98506 10.9149 9.58823 10.5697C10.1914 10.2245 10.7184 9.76065 11.1375 9.20625C11.5564 9.82373 12.1174 10.3316 12.7735 10.6871C13.4295 11.0426 14.1613 11.2353 14.9073 11.2491C15.6533 11.2629 16.3918 11.0973 17.0605 10.7663C17.7292 10.4352 18.3086 9.94846 18.75 9.34688C19.1814 9.9366 19.7458 10.4163 20.3974 10.7469C21.049 11.0776 21.7693 11.2499 22.5 11.2499C23.2307 11.2499 23.951 11.0776 24.6026 10.7469C25.2542 10.4163 25.8186 9.9366 26.25 9.34688C26.6814 9.9366 27.2458 10.4163 27.8974 10.7469C28.549 11.0776 29.2693 11.2499 30 11.2499C30.7307 11.2499 31.451 11.0776 32.1026 10.7469C32.7542 10.4163 33.3186 9.9366 33.75 9.34688C34.1814 9.9366 34.7458 10.4163 35.3974 10.7469C36.049 11.0776 36.7693 11.2499 37.5 11.2499C38.2307 11.2499 38.951 11.0776 39.6026 10.7469C40.2542 10.4163 40.8186 9.9366 41.25 9.34688C41.6914 9.94846 42.2708 10.4352 42.9395 10.7663C43.6082 11.0973 44.3467 11.2629 45.0927 11.2491C45.8387 11.2353 46.5705 11.0426 47.2265 10.6871C47.8826 10.3316 48.4436 9.82373 48.8625 9.20625C49.2816 9.76065 49.8086 10.2245 50.4118 10.5697C51.0149 10.9149 51.6818 11.1345 52.3721 11.2151C53.0624 11.2957 53.7618 11.2356 54.4283 11.0386C55.0948 10.8416 55.7145 10.5117 56.25 10.0687V39.375ZM52.9688 9.375C52.0985 9.375 51.2639 9.0293 50.6486 8.41394C50.0332 7.79859 49.6875 6.96399 49.6875 6.09375V3.75H53.9062C54.5279 3.75 55.124 3.99693 55.5635 4.43647C56.0031 4.87601 56.25 5.47215 56.25 6.09375C56.25 6.96399 55.9043 7.79859 55.2889 8.41394C54.6736 9.0293 53.839 9.375 52.9688 9.375Z" fill="#2A3342"/>
<path d="M42.1875 16.875C41.9389 16.875 41.7004 16.9738 41.5246 17.1496C41.3488 17.3254 41.25 17.5639 41.25 17.8125V19.6875C41.25 19.9361 41.3488 20.1746 41.5246 20.3504C41.7004 20.5262 41.9389 20.625 42.1875 20.625C42.4361 20.625 42.6746 20.5262 42.8504 20.3504C43.0262 20.1746 43.125 19.9361 43.125 19.6875V17.8125C43.125 17.5639 43.0262 17.3254 42.8504 17.1496C42.6746 16.9738 42.4361 16.875 42.1875 16.875Z" fill="#2A3342"/>
<path d="M42.1875 22.5C41.9389 22.5 41.7004 22.5988 41.5246 22.7746C41.3488 22.9504 41.25 23.1889 41.25 23.4375V25.3125C41.25 25.5611 41.3488 25.7996 41.5246 25.9754C41.7004 26.1512 41.9389 26.25 42.1875 26.25C42.4361 26.25 42.6746 26.1512 42.8504 25.9754C43.0262 25.7996 43.125 25.5611 43.125 25.3125V23.4375C43.125 23.1889 43.0262 22.9504 42.8504 22.7746C42.6746 22.5988 42.4361 22.5 42.1875 22.5Z" fill="#2A3342"/>
<path d="M30.9375 42.1875H29.0625C28.8139 42.1875 28.5754 42.2863 28.3996 42.4621C28.2238 42.6379 28.125 42.8764 28.125 43.125C28.125 43.3736 28.2238 43.6121 28.3996 43.7879C28.5754 43.9637 28.8139 44.0625 29.0625 44.0625H30.9375C31.1861 44.0625 31.4246 43.9637 31.6004 43.7879C31.7762 43.6121 31.875 43.3736 31.875 43.125C31.875 42.8764 31.7762 42.6379 31.6004 42.4621C31.4246 42.2863 31.1861 42.1875 30.9375 42.1875Z" fill="#2A3342"/>
<path d="M26.2501 19.7137H10.2864V18.75C10.2856 18.0113 9.99183 17.303 9.46947 16.7806C8.94711 16.2583 8.23885 15.9645 7.50012 15.9637H5.62512C5.38344 15.9637 5.15166 16.0598 4.98077 16.2306C4.80987 16.4015 4.71387 16.6333 4.71387 16.875C4.71387 17.1167 4.80987 17.3485 4.98077 17.5193C5.15166 17.6902 5.38344 17.7862 5.62512 17.7862H7.50012C7.75564 17.7865 8.00063 17.8881 8.18132 18.0688C8.362 18.2495 8.46362 18.4945 8.46387 18.75V30.9375C8.46569 31.5532 8.67161 32.1509 9.0494 32.6371C9.42718 33.1233 9.95551 33.4705 10.5517 33.6244C10.3732 34.0446 10.3006 34.5022 10.3402 34.957C10.3797 35.4118 10.5302 35.85 10.7785 36.2331C11.0268 36.6162 11.3653 36.9326 11.7643 37.1544C12.1633 37.3763 12.6106 37.4969 13.067 37.5057C13.5235 37.5144 13.9751 37.4111 14.3823 37.2047C14.7896 36.9983 15.1399 36.6952 15.4027 36.3218C15.6655 35.9485 15.8328 35.5165 15.8897 35.0635C15.9467 34.6105 15.8917 34.1505 15.7295 33.7238H18.0207C17.9028 34.0315 17.8412 34.3579 17.8389 34.6875C17.8389 35.2386 18.0023 35.7773 18.3084 36.2355C18.6146 36.6937 19.0497 37.0508 19.5589 37.2617C20.068 37.4726 20.6282 37.5277 21.1687 37.4202C21.7092 37.3127 22.2056 37.0473 22.5953 36.6577C22.985 36.268 23.2503 35.7716 23.3578 35.2311C23.4653 34.6906 23.4102 34.1304 23.1993 33.6213C22.9884 33.1121 22.6313 32.677 22.1731 32.3708C21.7149 32.0647 21.1762 31.9013 20.6251 31.9013H11.2501C10.9946 31.901 10.7496 31.7994 10.5689 31.6187C10.3882 31.438 10.2866 31.193 10.2864 30.9375V30.9113H22.0426C22.6425 30.914 23.2272 30.7219 23.7085 30.3639C24.1899 30.0058 24.5419 29.501 24.7117 28.9256L27.1229 20.8866C27.1637 20.7505 27.1721 20.6068 27.1475 20.4669C27.1228 20.3271 27.0658 20.1949 26.9811 20.081C26.8963 19.967 26.786 19.8745 26.6591 19.8107C26.5322 19.747 26.3921 19.7138 26.2501 19.7137ZM14.0889 34.6875C14.0889 34.8781 14.0323 35.0644 13.9264 35.2229C13.8205 35.3814 13.67 35.505 13.4939 35.5779C13.3178 35.6508 13.124 35.6699 12.9371 35.6327C12.7502 35.5956 12.5784 35.5038 12.4436 35.369C12.3089 35.2342 12.2171 35.0625 12.1799 34.8755C12.1427 34.6886 12.1618 34.4948 12.2347 34.3187C12.3077 34.1426 12.4312 33.9921 12.5897 33.8862C12.7482 33.7803 12.9345 33.7238 13.1251 33.7238C13.3806 33.724 13.6256 33.8256 13.8063 34.0063C13.987 34.187 14.0886 34.432 14.0889 34.6875ZM20.6251 35.6513C20.4345 35.6513 20.2482 35.5947 20.0897 35.4888C19.9312 35.3829 19.8077 35.2324 19.7347 35.0563C19.6618 34.8802 19.6427 34.6864 19.6799 34.4995C19.7171 34.3125 19.8089 34.1408 19.9436 34.006C20.0784 33.8713 20.2502 33.7795 20.4371 33.7423C20.6241 33.7051 20.8178 33.7242 20.9939 33.7971C21.17 33.8701 21.3205 33.9936 21.4264 34.1521C21.5323 34.3106 21.5889 34.4969 21.5889 34.6875C21.5886 34.943 21.487 35.188 21.3063 35.3687C21.1256 35.5494 20.8806 35.651 20.6251 35.6513ZM22.9689 28.4063C22.9099 28.6052 22.788 28.7797 22.6216 28.9036C22.4551 29.0275 22.2529 29.0941 22.0454 29.0934H10.2864V21.5362H25.0257L22.9689 28.4063Z" fill="#2A3342"/>
<path d="M16.2297 19.395C16.4011 19.5656 16.633 19.6614 16.8747 19.6614C17.1165 19.6614 17.3484 19.5656 17.5197 19.395L19.3947 17.52C19.564 17.3485 19.6585 17.1171 19.6577 16.8762C19.6569 16.6354 19.5608 16.4046 19.3905 16.2342C19.2202 16.0639 18.9894 15.9679 18.7485 15.9671C18.5076 15.9663 18.2762 16.0608 18.1047 16.23L17.786 16.5497V14.0625C17.786 13.8208 17.69 13.589 17.5191 13.4181C17.3482 13.2473 17.1164 13.1512 16.8747 13.1512C16.6331 13.1512 16.4013 13.2473 16.2304 13.4181C16.0595 13.589 15.9635 13.8208 15.9635 14.0625V16.5497L15.6447 16.23C15.4733 16.0608 15.2419 15.9663 15.001 15.9671C14.7601 15.9679 14.5293 16.0639 14.359 16.2342C14.1886 16.4046 14.0926 16.6354 14.0918 16.8762C14.091 17.1171 14.1855 17.3485 14.3547 17.52L16.2297 19.395Z" fill="#2A3342"/>
</svg>
