<svg width="60" height="54" viewBox="0 0 60 54" fill="none" xmlns="http://www.w3.org/2000/svg">
<rect width="60" height="54" fill="#F6F6F6"/>
<path d="M53.1884 52.9427H6.81159C3.05593 52.9427 0 49.8868 0 46.1311V6.81159C0 3.05593 3.05593 0 6.81159 0H53.1884C56.9441 0 60 3.05593 60 6.81159V46.1311C60 49.8868 56.9441 52.9427 53.1884 52.9427ZM6.81159 2.02899C4.17459 2.02899 2.02899 4.17459 2.02899 6.81159V46.1311C2.02899 48.7681 4.17459 50.9137 6.81159 50.9137H53.1884C55.8254 50.9137 57.971 48.7681 57.971 46.1311V6.81159C57.971 4.17459 55.8254 2.02899 53.1884 2.02899H6.81159Z" fill="#2A3342"/>
<path d="M58.9855 13.5841H1.01449C0.454031 13.5841 0 13.1301 0 12.5696C0 12.0091 0.454031 11.5551 1.01449 11.5551H58.9855C59.546 11.5551 60 12.0091 60 12.5696C60 13.1301 59.546 13.5841 58.9855 13.5841Z" fill="#2A3342"/>
<path d="M14.625 9.96831C12.8842 9.96831 11.4678 8.55244 11.4678 6.81161C11.4678 5.07078 12.8842 3.65491 14.625 3.65491C16.3659 3.65491 17.7817 5.07078 17.7817 6.81161C17.7817 8.55244 16.3659 9.96831 14.625 9.96831ZM14.625 5.68389C14.0029 5.68389 13.4968 6.19001 13.4968 6.81161C13.4968 7.43321 14.0029 7.93933 14.625 7.93933C15.2466 7.93933 15.7528 7.43321 15.7528 6.81161C15.7528 6.19001 15.2466 5.68389 14.625 5.68389Z" fill="#2A3342"/>
<path d="M7.31588 9.96831C5.57562 9.96831 4.15918 8.55244 4.15918 6.81161C4.15918 5.07078 5.57562 3.65491 7.31588 3.65491C9.05671 3.65491 10.4731 5.07078 10.4731 6.81161C10.4731 8.55244 9.05671 9.96831 7.31588 9.96831ZM7.31588 5.68389C6.69428 5.68389 6.18816 6.19001 6.18816 6.81161C6.18816 7.43321 6.69428 7.93933 7.31588 7.93933C7.93805 7.93933 8.44416 7.43321 8.44416 6.81161C8.44416 6.19001 7.93805 5.68389 7.31588 5.68389Z" fill="#2A3342"/>
<path d="M21.934 9.96831C20.1932 9.96831 18.7773 8.55244 18.7773 6.81161C18.7773 5.07078 20.1932 3.65491 21.934 3.65491C23.6749 3.65491 25.0913 5.07078 25.0913 6.81161C25.0913 8.55244 23.6749 9.96831 21.934 9.96831ZM21.934 5.68389C21.3119 5.68389 20.8063 6.19001 20.8063 6.81161C20.8063 7.43321 21.3124 7.93933 21.934 7.93933C22.5562 7.93933 23.0623 7.43321 23.0623 6.81161C23.0623 6.19001 22.5562 5.68389 21.934 5.68389Z" fill="#2A3342"/>
<path d="M27.6695 31.588H5.93148C5.37102 31.588 4.91699 31.1334 4.91699 30.5735V20.3402C4.91699 19.7798 5.37102 19.3257 5.93148 19.3257H27.6695C28.2299 19.3257 28.684 19.7798 28.684 20.3402V30.5735C28.684 31.1334 28.2299 31.588 27.6695 31.588ZM6.94598 29.559H26.655V21.3547H6.94598V29.559Z" fill="#2A3342"/>
<path d="M5.94226 31.5438C5.56013 31.5438 5.19442 31.327 5.02231 30.9584C4.78511 30.4506 5.00476 29.8471 5.51258 29.6099L27.2517 19.465C27.7595 19.2284 28.363 19.4475 28.6002 19.9553C28.8369 20.4631 28.6178 21.0666 28.1099 21.3038L6.37082 31.4487C6.23212 31.5132 6.08606 31.5438 5.94226 31.5438Z" fill="#2A3342"/>
<path d="M27.681 31.5438C27.5372 31.5438 27.3911 31.5132 27.2524 31.4487L5.51331 21.3038C5.0055 21.0666 4.78641 20.4631 5.02305 19.9553C5.26025 19.4475 5.86374 19.2284 6.37155 19.465L28.1107 29.6099C28.6185 29.8471 28.8382 30.4506 28.6009 30.9584C28.4288 31.327 28.0631 31.5438 27.681 31.5438Z" fill="#2A3342"/>
<path d="M54.0714 31.588H32.3329C31.773 31.588 31.3184 31.1334 31.3184 30.5735V20.3402C31.3184 19.7798 31.773 19.3257 32.3329 19.3257H54.0714C54.6319 19.3257 55.0859 19.7798 55.0859 20.3402V30.5735C55.0859 31.1334 54.6319 31.588 54.0714 31.588ZM33.3473 29.559H53.0569V21.3547H33.3473V29.559Z" fill="#2A3342"/>
<path d="M32.3192 31.5438C31.9371 31.5438 31.5714 31.327 31.3993 30.9584C31.1621 30.4506 31.3817 29.8471 31.8895 29.6099L53.6286 19.465C54.137 19.2278 54.7405 19.4475 54.9772 19.9553C55.2144 20.4631 54.9947 21.0666 54.4869 21.3038L32.7478 31.4487C32.6091 31.5132 32.463 31.5438 32.3192 31.5438Z" fill="#2A3342"/>
<path d="M54.0572 31.5438C53.9134 31.5438 53.7673 31.5132 53.6286 31.4487L31.8895 21.3038C31.3817 21.0666 31.1621 20.4631 31.3993 19.9553C31.6365 19.4475 32.2405 19.2284 32.7478 19.465L54.4869 29.6099C54.9947 29.8471 55.2144 30.4506 54.9772 30.9584C54.805 31.327 54.4393 31.5438 54.0572 31.5438Z" fill="#2A3342"/>
<path d="M27.6671 38.84C27.6666 38.84 27.6666 38.84 27.6666 38.84L5.92799 38.8287C5.36753 38.8281 4.9135 38.3741 4.91406 37.8136C4.91406 37.2537 5.36866 36.7997 5.92856 36.7997H5.92912L27.6671 36.811C28.2276 36.811 28.6816 37.2656 28.6816 37.8261C28.6811 38.386 28.227 38.84 27.6671 38.84Z" fill="#2A3342"/>
<path d="M18.9715 44.6371C18.9709 44.6371 18.9709 44.6371 18.9703 44.6371L5.92742 44.6258C5.36753 44.6252 4.9135 44.1706 4.91406 43.6102C4.91463 43.0503 5.36866 42.5968 5.92856 42.5968H5.92912L18.972 42.6081C19.5325 42.6081 19.9865 43.0633 19.986 43.6232C19.9854 44.1831 19.5314 44.6371 18.9715 44.6371Z" fill="#2A3342"/>
<path d="M54.0714 38.8344H32.3329C31.773 38.8344 31.3184 38.3803 31.3184 37.8199C31.3184 37.2594 31.773 36.8054 32.3329 36.8054H54.0714C54.6319 36.8054 55.0859 37.2594 55.0859 37.8199C55.0859 38.3803 54.6319 38.8344 54.0714 38.8344Z" fill="#2A3342"/>
<path d="M45.3758 44.6315H32.3329C31.773 44.6315 31.3184 44.1774 31.3184 43.617C31.3184 43.0565 31.773 42.6025 32.3329 42.6025H45.3758C45.9362 42.6025 46.3903 43.0565 46.3903 43.617C46.3903 44.1774 45.9362 44.6315 45.3758 44.6315Z" fill="#2A3342"/>
</svg>
